<svg width="117" height="24" viewBox="0 0 117 24" fill="none" xmlns="http://www.w3.org/2000/svg">
<path d="M7.14844 2.33984C7.14844 1.90039 7.06055 1.59277 6.88477 1.41699C6.70898 1.23145 6.30859 1.13867 5.68359 1.13867H3.01758C1.49414 1.13867 0.732422 2.19824 0.732422 4.31738C0.732422 4.36621 0.712891 4.41016 0.673828 4.44922C0.634766 4.47852 0.595703 4.49316 0.556641 4.49316C0.449219 4.49316 0.395508 4.43457 0.395508 4.31738V0.845703C0.395508 0.728516 0.449219 0.669922 0.556641 0.669922H15.6738C15.7812 0.669922 15.835 0.728516 15.835 0.845703V4.31738C15.835 4.43457 15.7812 4.49316 15.6738 4.49316C15.6348 4.49316 15.5957 4.47852 15.5566 4.44922C15.5176 4.41016 15.498 4.36621 15.498 4.31738C15.498 2.19824 14.7363 1.13867 13.2129 1.13867H10.5469C9.96094 1.13867 9.5752 1.2168 9.38965 1.37305C9.2041 1.5293 9.10156 1.79297 9.08203 2.16406V19.9473C9.08203 20.3965 9.16992 20.7139 9.3457 20.8994C9.52148 21.0752 9.92188 21.1631 10.5469 21.1631C10.6641 21.1631 10.7227 21.2168 10.7227 21.3242C10.7227 21.3633 10.7031 21.4023 10.6641 21.4414C10.625 21.4805 10.5859 21.5 10.5469 21.5H5.68359C5.64453 21.5 5.60547 21.4805 5.56641 21.4414C5.52734 21.4023 5.50781 21.3633 5.50781 21.3242C5.50781 21.2168 5.56641 21.1631 5.68359 21.1631C6.30859 21.1631 6.70898 21.0752 6.88477 20.8994C7.06055 20.7139 7.14844 20.3965 7.14844 19.9473V2.33984ZM17.417 1.02148C17.3096 1.02148 17.2559 0.958008 17.2559 0.831055C17.2559 0.723633 17.3145 0.669922 17.4316 0.669922H18.8965C19.5703 0.669922 20.9863 0.59668 23.1445 0.450195C25.3027 0.293945 26.6211 0.21582 27.0996 0.21582C28.0762 0.21582 28.96 0.337891 29.751 0.582031C30.5518 0.826172 31.2061 1.14355 31.7139 1.53418C32.2217 1.91504 32.6465 2.34961 32.9883 2.83789C33.3398 3.32617 33.584 3.80957 33.7207 4.28809C33.8672 4.75684 33.9404 5.21582 33.9404 5.66504C33.9404 6.9834 33.4961 8.14062 32.6074 9.13672C31.7188 10.1328 30.5176 10.792 29.0039 11.1143C29.5215 11.2803 29.9756 11.6367 30.3662 12.1836C30.7568 12.7305 31.0547 13.3555 31.2598 14.0586C31.4648 14.752 31.6699 15.4893 31.875 16.2705C32.0801 17.042 32.2607 17.75 32.417 18.3945C32.583 19.0391 32.8125 19.5762 33.1055 20.0059C33.3984 20.4258 33.7451 20.6357 34.1455 20.6357C34.4482 20.6357 34.8145 20.4062 35.2441 19.9473C35.2539 19.9277 35.2832 19.9277 35.332 19.9473L35.4785 20.0938C35.5078 20.1035 35.5127 20.1279 35.4932 20.167C35.2295 20.499 34.8877 20.8066 34.4678 21.0898C34.0576 21.3633 33.6621 21.5 33.2812 21.5C32.7344 21.5 32.2754 21.3145 31.9043 20.9434C31.5332 20.5625 31.2451 20.0742 31.04 19.4785C30.8447 18.8828 30.6689 18.2236 30.5127 17.501C30.3564 16.7783 30.1855 16.0557 30 15.333C29.8242 14.6006 29.6045 13.9365 29.3408 13.3408C29.0869 12.7451 28.7158 12.2617 28.2275 11.8906C27.749 11.5098 27.168 11.3193 26.4844 11.3193H20.874C20.835 11.3193 20.8154 11.334 20.8154 11.3633V19.9473C20.8154 20.3965 20.9033 20.7139 21.0791 20.8994C21.2549 21.0752 21.6553 21.1631 22.2803 21.1631C22.3975 21.1631 22.4561 21.2217 22.4561 21.3389C22.4561 21.4463 22.3975 21.5 22.2803 21.5H17.417C17.3096 21.5 17.2559 21.4365 17.2559 21.3096C17.2559 21.2119 17.3145 21.1631 17.4316 21.1631C18.0566 21.1631 18.457 21.0752 18.6328 20.8994C18.8086 20.7139 18.8965 20.3965 18.8965 19.9473V2.22266V2.2373C18.8965 1.79785 18.8037 1.48535 18.6182 1.2998C18.4424 1.11426 18.042 1.02148 17.417 1.02148ZM20.8154 2.07617V10.8066C20.8154 10.8359 20.835 10.8506 20.874 10.8506H26.9971C28.54 10.8506 29.7852 10.3574 30.7324 9.37109C31.6797 8.38477 32.1533 7.21289 32.1533 5.85547C32.1533 4.99609 31.958 4.17578 31.5674 3.39453C31.1768 2.61328 30.5859 1.96387 29.7949 1.44629C29.0039 0.928711 28.1006 0.669922 27.085 0.669922C25.3076 0.669922 23.7256 0.748047 22.3389 0.904297C21.7432 0.982422 21.3428 1.10938 21.1377 1.28516C20.9424 1.45117 20.835 1.71484 20.8154 2.07617ZM39.917 21.3389C39.917 21.4463 39.8584 21.5 39.7412 21.5H36.3574C36.2402 21.5 36.1816 21.4463 36.1816 21.3389C36.1816 21.2217 36.2402 21.1631 36.3574 21.1631C36.9629 21.1631 37.4023 21.0801 37.6758 20.9141C37.9492 20.748 38.1641 20.4746 38.3203 20.0938L44.4141 2.76465L44.2236 2.22266V2.2373C44.0674 1.79785 43.8477 1.48535 43.5645 1.2998C43.291 1.11426 42.8369 1.02148 42.2021 1.02148C42.0947 1.02148 42.041 0.958008 42.041 0.831055C42.041 0.723633 42.0996 0.669922 42.2168 0.669922H45.4688C45.5566 0.669922 45.6201 0.713867 45.6592 0.801758L52.4268 19.9473C52.583 20.3867 52.7979 20.6992 53.0713 20.8848C53.3545 21.0703 53.8135 21.1631 54.4482 21.1631C54.5654 21.1631 54.624 21.2217 54.624 21.3389C54.624 21.4463 54.5654 21.5 54.4482 21.5H49.585C49.4678 21.5 49.4092 21.4365 49.4092 21.3096C49.4092 21.2119 49.4678 21.1631 49.585 21.1631C49.917 21.1631 50.166 21.1436 50.332 21.1045C50.5078 21.0557 50.6152 20.9678 50.6543 20.8408C50.6934 20.7139 50.6982 20.5967 50.6689 20.4893C50.6494 20.3818 50.5957 20.2012 50.5078 19.9473L47.4609 11.3633C47.4414 11.334 47.4219 11.3193 47.4023 11.3193H41.9092C41.8799 11.3193 41.8604 11.334 41.8506 11.3633L38.7451 20.2109C38.5986 20.5234 38.5889 20.7627 38.7158 20.9287C38.8525 21.085 39.1992 21.1631 39.7559 21.1631C39.8633 21.1631 39.917 21.2217 39.917 21.3389ZM42.041 10.8213C42.041 10.8408 42.0508 10.8506 42.0703 10.8506H47.2412C47.2607 10.8506 47.2705 10.8408 47.2705 10.8213L44.6484 3.40918L42.041 10.8213ZM66.5186 1.02148C66.4014 1.02148 66.3428 0.958008 66.3428 0.831055C66.3428 0.723633 66.4014 0.669922 66.5186 0.669922H69.9023C70.0293 0.669922 70.0928 0.723633 70.0928 0.831055C70.0928 0.958008 70.0342 1.02148 69.917 1.02148C69.3115 1.02148 68.8721 1.10449 68.5986 1.27051C68.3252 1.42676 68.1104 1.69531 67.9541 2.07617L61.2012 21.2949C61.1523 21.4316 61.0547 21.5 60.9082 21.5H60.8789C60.7324 21.5 60.6348 21.4316 60.5859 21.2949L53.8477 2.2373C53.6914 1.79785 53.4717 1.48535 53.1885 1.2998C52.915 1.11426 52.4609 1.02148 51.8262 1.02148C51.709 1.02148 51.6504 0.958008 51.6504 0.831055C51.6504 0.723633 51.709 0.669922 51.8262 0.669922H56.6895C56.8066 0.669922 56.8652 0.733398 56.8652 0.860352C56.8652 0.967773 56.8018 1.02148 56.6748 1.02148C56.3428 1.02148 56.0889 1.0459 55.9131 1.09473C55.7471 1.13379 55.6445 1.2168 55.6055 1.34375C55.5762 1.4707 55.5713 1.58789 55.5908 1.69531C55.6201 1.80273 55.6787 1.9834 55.7666 2.2373L61.6113 18.7314C61.6113 18.7412 61.6162 18.7461 61.626 18.7461C61.6357 18.7461 61.6406 18.7412 61.6406 18.7314L67.5293 1.95898C67.6758 1.64648 67.6807 1.41211 67.5439 1.25586C67.417 1.09961 67.0752 1.02148 66.5186 1.02148ZM71.3379 21.1631C71.9629 21.1631 72.3633 21.0752 72.5391 20.8994C72.7148 20.7139 72.8027 20.3965 72.8027 19.9473V2.2373C72.8027 1.79785 72.71 1.48535 72.5244 1.2998C72.3486 1.11426 71.9482 1.02148 71.3232 1.02148C71.2158 1.02148 71.1621 0.958008 71.1621 0.831055C71.1621 0.723633 71.2207 0.669922 71.3379 0.669922H85.1807C85.2295 0.669922 85.2686 0.689453 85.2979 0.728516C85.3369 0.767578 85.3564 0.806641 85.3564 0.845703V4.31738C85.3564 4.43457 85.293 4.49316 85.166 4.49316C85.0586 4.49316 85.0049 4.43457 85.0049 4.31738C85.0049 2.19824 84.2432 1.13867 82.7197 1.13867H76.1865C75.6006 1.13867 75.2148 1.2168 75.0293 1.37305C74.8438 1.5293 74.7412 1.79297 74.7217 2.16406V10.792C74.7217 10.8311 74.7412 10.8506 74.7803 10.8506H80.8887C81.8164 10.8506 82.4268 10.6797 82.7197 10.3379C83.0225 9.98633 83.1738 9.43457 83.1738 8.68262C83.1738 8.56543 83.2324 8.50684 83.3496 8.50684C83.457 8.50684 83.5107 8.56543 83.5107 8.68262V13.4873C83.5107 13.6045 83.4521 13.6631 83.335 13.6631C83.2275 13.6631 83.1738 13.6045 83.1738 13.4873C83.1738 12.7354 83.0225 12.1885 82.7197 11.8467C82.4268 11.4951 81.8164 11.3193 80.8887 11.3193H74.7803C74.7412 11.3193 74.7217 11.3389 74.7217 11.3779V19.8301C74.7217 20.2695 74.8047 20.582 74.9707 20.7676C75.1465 20.9434 75.542 21.0361 76.1572 21.0459H83.4814C85.0146 21.0459 85.7812 19.9814 85.7812 17.8525C85.7812 17.7354 85.8398 17.6768 85.957 17.6768C86.0645 17.6768 86.1182 17.7354 86.1182 17.8525V21.3242C86.1182 21.3633 86.0986 21.4023 86.0596 21.4414C86.0303 21.4805 85.9912 21.5 85.9424 21.5H71.3232C71.2158 21.5 71.1621 21.4365 71.1621 21.3096C71.1621 21.2119 71.2207 21.1631 71.3379 21.1631ZM107.402 16.4609C106.152 17.2129 104.79 17.5889 103.315 17.5889C101.841 17.5889 100.479 17.2129 99.2285 16.4609C97.9785 15.6992 96.9873 14.6689 96.2549 13.3701C95.5322 12.0713 95.1709 10.6553 95.1709 9.12207C95.1709 7.58887 95.5322 6.17285 96.2549 4.87402C96.9873 3.5752 97.9785 2.5498 99.2285 1.79785C100.479 1.0459 101.841 0.669922 103.315 0.669922C104.419 0.669922 105.474 0.894531 106.479 1.34375C107.485 1.7832 108.35 2.38379 109.072 3.14551C109.795 3.89746 110.371 4.7959 110.801 5.84082C111.23 6.87598 111.445 7.96973 111.445 9.12207C111.445 10.6553 111.084 12.0713 110.361 13.3701C109.639 14.6689 108.652 15.6992 107.402 16.4609ZM101.47 1.34375C100.649 1.53906 99.9121 1.92969 99.2578 2.51562C98.6035 3.10156 98.0908 3.80957 97.7197 4.63965C97.3584 5.46973 97.124 6.39746 97.0166 7.42285C96.9092 8.43848 96.9922 9.4834 97.2656 10.5576C97.7832 12.7061 98.8086 14.4004 100.342 15.6406C101.885 16.8711 103.491 17.291 105.161 16.9004C105.981 16.7051 106.714 16.3145 107.358 15.7285C108.013 15.1426 108.521 14.4346 108.882 13.6045C109.253 12.7744 109.492 11.8516 109.6 10.8359C109.707 9.81055 109.624 8.76074 109.351 7.68652C108.833 5.53809 107.808 3.84863 106.274 2.61816C104.741 1.37793 103.14 0.953125 101.47 1.34375ZM109.409 17.3105L109.644 17.2373C109.81 17.7354 109.883 18.2285 109.863 18.7168C109.844 19.2051 109.766 19.6738 109.629 20.123C109.502 20.5625 109.277 20.9727 108.955 21.3535C108.633 21.7246 108.252 22.0469 107.812 22.3203C107.373 22.6035 106.836 22.8232 106.201 22.9795C105.576 23.1357 104.893 23.2139 104.15 23.2139C103.018 23.2139 101.66 23.0723 100.078 22.7891C98.5059 22.5059 96.9531 22.2178 95.4199 21.9248C93.8965 21.6416 92.627 21.5 91.6113 21.5H88.3447C88.2373 21.5 88.1836 21.4414 88.1836 21.3242C88.1836 21.2168 88.2373 21.1631 88.3447 21.1631C88.9697 21.1631 89.3701 21.0703 89.5459 20.8848C89.7314 20.6992 89.8242 20.3867 89.8242 19.9473V2.2373C89.8242 1.79785 89.7314 1.48535 89.5459 1.2998C89.3701 1.11426 88.9697 1.02148 88.3447 1.02148C88.2373 1.02148 88.1836 0.962891 88.1836 0.845703C88.1836 0.728516 88.2373 0.669922 88.3447 0.669922H93.208C93.2568 0.669922 93.2959 0.689453 93.3252 0.728516C93.3643 0.767578 93.3838 0.806641 93.3838 0.845703C93.3838 0.884766 93.3643 0.923828 93.3252 0.962891C93.2959 1.00195 93.2568 1.02148 93.208 1.02148C92.583 1.02148 92.1826 1.11426 92.0068 1.2998C91.8311 1.47559 91.7432 1.78809 91.7432 2.2373V20.123C91.7529 20.3379 91.7627 20.4941 91.7725 20.5918C91.792 20.6797 91.8262 20.7773 91.875 20.8848C91.9336 20.9922 92.0215 21.0654 92.1387 21.1045C92.2559 21.1436 92.4121 21.1631 92.6074 21.1631C93.1934 21.1631 94.082 21.2607 95.2734 21.4561C96.4746 21.6416 97.8467 21.832 99.3896 22.0273C100.933 22.2227 102.412 22.3203 103.828 22.3203C104.609 22.3203 105.317 22.252 105.952 22.1152C106.587 21.9883 107.114 21.8076 107.534 21.5732C107.964 21.3389 108.335 21.0654 108.647 20.7529C108.96 20.4307 109.18 20.084 109.307 19.7129C109.434 19.3418 109.512 18.9512 109.541 18.541C109.58 18.1309 109.536 17.7207 109.409 17.3105ZM116.03 20.3428C116.157 20.6357 116.157 20.9336 116.03 21.2363C115.903 21.5391 115.693 21.749 115.4 21.8662C115.107 21.9932 114.81 21.9932 114.507 21.8662C114.204 21.7393 113.989 21.5293 113.862 21.2363C113.745 20.9434 113.75 20.6455 113.877 20.3428C114.004 20.04 114.214 19.8301 114.507 19.7129C114.8 19.5859 115.098 19.5859 115.4 19.7129C115.703 19.8398 115.913 20.0498 116.03 20.3428Z" fill="white"/>
</svg>
